<?xml version="1.0" standalone="no"?>
<!DOCTYPE svg PUBLIC "-//W3C//DTD SVG 20010904//EN"
 "http://www.w3.org/TR/2001/REC-SVG-20010904/DTD/svg10.dtd">
<svg version="1.0" xmlns="http://www.w3.org/2000/svg"
 width="600.000000pt" height="600.000000pt" viewBox="0 0 600.000000 600.000000"
 preserveAspectRatio="xMidYMid meet">

<g transform="translate(0.000000,600.000000) scale(0.100000,-0.100000)"
fill="currentColor" stroke="none">
<path d="M1481 4649 c-85 -14 -170 -61 -235 -128 -69 -74 -104 -147 -116 -243
-11 -95 -11 -1411 0 -1506 22 -183 167 -337 350 -372 29 -5 117 -10 196 -10
l144 0 0 -24 c0 -93 -101 -363 -171 -457 -57 -76 -51 -102 27 -114 52 -9 131
18 299 100 228 111 313 177 503 388 l97 108 540 1 c297 0 572 4 610 9 136 17
276 113 336 230 49 96 49 104 49 894 0 633 -2 749 -15 800 -45 171 -182 296
-355 324 -81 13 -2180 13 -2259 0z m1935 -904 c85 -25 144 -107 144 -199 0
-58 -14 -93 -53 -135 -107 -113 -283 -85 -348 54 -26 56 -24 111 7 173 27 55
64 87 123 108 47 17 67 17 127 -1z m-688 -34 c143 -73 152 -268 16 -359 -46
-32 -53 -34 -120 -30 -92 4 -140 34 -178 109 -32 66 -33 118 -2 185 50 108
176 150 284 95z m-733 -20 c148 -67 164 -269 28 -364 -78 -56 -180 -47 -256
22 -49 44 -67 85 -67 153 0 153 155 253 295 189z"/>
<path d="M4378 3189 l-3 -744 -29 -60 c-41 -83 -112 -155 -194 -196 l-67 -34
-692 -3 -691 -3 -113 -120 c-104 -111 -111 -121 -101 -144 16 -35 79 -73 142
-85 33 -6 265 -10 603 -10 l548 1 35 -70 c41 -83 151 -205 237 -263 33 -22 98
-59 146 -81 70 -33 100 -41 162 -45 109 -6 141 16 103 73 -8 13 -35 72 -60
132 -38 95 -44 117 -44 183 l0 75 78 2 c180 6 317 100 384 263 l23 55 3 699
c2 462 -1 723 -8 768 -14 92 -56 172 -124 236 -77 73 -146 103 -252 110 l-84
5 -2 -744z"/>
</g>
</svg>
