<svg width="44" height="24" viewBox="0 0 44 24" fill="none" xmlns="http://www.w3.org/2000/svg">
<path d="M6.03409 24H0.761364L8.79545 0.727272H15.1364L23.1591 24H17.8864L12.0568 6.04545H11.875L6.03409 24ZM5.70455 14.8523H18.1591V18.6932H5.70455V14.8523Z" fill="#2EB16B"/>
<path d="M25.9602 24V0.727272H35.2784C36.9905 0.727272 38.4186 0.98106 39.5625 1.48864C40.7064 1.99621 41.5663 2.70076 42.142 3.60227C42.7178 4.49621 43.0057 5.52652 43.0057 6.69318C43.0057 7.60227 42.8239 8.40152 42.4602 9.09091C42.0966 9.77273 41.5966 10.3333 40.9602 10.7727C40.3314 11.2045 39.6117 11.5114 38.8011 11.6932V11.9205C39.6875 11.9583 40.517 12.2083 41.2898 12.6705C42.0701 13.1326 42.7027 13.7803 43.1875 14.6136C43.6723 15.4394 43.9148 16.4242 43.9148 17.5682C43.9148 18.803 43.608 19.9053 42.9943 20.875C42.3883 21.8371 41.4905 22.5985 40.3011 23.1591C39.1117 23.7197 37.6458 24 35.9034 24H25.9602ZM30.8807 19.9773H34.892C36.2633 19.9773 37.2633 19.7159 37.892 19.1932C38.5208 18.6629 38.8352 17.9583 38.8352 17.0795C38.8352 16.4356 38.6799 15.8674 38.3693 15.375C38.0587 14.8826 37.6155 14.4962 37.0398 14.2159C36.4716 13.9356 35.7936 13.7955 35.0057 13.7955H30.8807V19.9773ZM30.8807 10.4659H34.5284C35.2027 10.4659 35.8011 10.3485 36.3239 10.1136C36.8542 9.87121 37.2708 9.5303 37.5739 9.09091C37.8845 8.65152 38.0398 8.125 38.0398 7.51136C38.0398 6.67045 37.7405 5.99242 37.142 5.47727C36.5511 4.96212 35.7102 4.70454 34.6193 4.70454H30.8807V10.4659Z" fill="#124C2D"/>
</svg>
