<?xml version="1.0" standalone="no"?>
<!DOCTYPE svg PUBLIC "-//W3C//DTD SVG 20010904//EN"
 "http://www.w3.org/TR/2001/REC-SVG-20010904/DTD/svg10.dtd">
<svg version="1.0" xmlns="http://www.w3.org/2000/svg"
 width="600.000000pt" height="600.000000pt" viewBox="0 0 600.000000 600.000000"
 preserveAspectRatio="xMidYMid meet">

<g transform="translate(0.000000,600.000000) scale(0.100000,-0.100000)"
fill="currentColor" stroke="none">
<path d="M1447 4223 c-4 -3 -7 -37 -7 -75 l0 -68 1720 0 1720 0 0 -900 0 -900
75 0 75 0 0 975 0 975 -1788 0 c-984 0 -1792 -3 -1795 -7z"/>
<path d="M1190 3905 l0 -75 1720 0 1720 0 0 -900 0 -900 75 0 75 0 0 975 0
975 -1795 0 -1795 0 0 -75z"/>
<path d="M1010 2785 l0 -935 1755 0 1755 0 0 935 0 935 -1755 0 -1755 0 0
-935z m3368 -2 l-3 -788 -1607 -3 -1608 -2 0 790 0 790 1610 0 1610 0 -2 -787z"/>
<path d="M1250 2785 l0 -705 608 0 607 0 -65 36 c-181 101 -310 258 -370 449
-34 108 -39 285 -11 395 53 216 202 407 388 500 24 12 43 23 43 26 0 2 -270 4
-600 4 l-600 0 0 -705z"/>
<path d="M3084 3477 c164 -103 258 -190 325 -302 82 -137 123 -328 101 -477
-38 -264 -173 -460 -404 -584 l-61 -34 618 0 617 0 0 705 0 705 -607 -1 c-475
0 -604 -3 -589 -12z"/>
<path d="M2690 3275 c0 -45 -4 -65 -12 -65 -24 0 -133 -57 -155 -81 -33 -36
-63 -109 -63 -154 0 -125 69 -193 268 -265 100 -36 139 -85 116 -145 -21 -54
-161 -65 -279 -21 -38 14 -70 24 -71 23 -1 -1 -11 -35 -22 -75 l-20 -73 22
-14 c27 -17 134 -45 175 -45 l31 0 0 -65 0 -65 70 0 70 0 0 68 0 67 58 17
c152 45 225 207 156 346 -31 62 -84 102 -190 143 -40 16 -91 37 -113 49 -66
33 -79 80 -35 121 23 21 34 24 107 23 61 0 94 -6 129 -21 26 -12 50 -19 52
-15 6 10 36 127 36 140 0 12 -76 38 -144 49 l-49 8 -1 55 -1 55 -67 3 -68 3 0
-66z"/>
</g>
</svg>
