<?xml version="1.0" standalone="no"?>
<!DOCTYPE svg PUBLIC "-//W3C//DTD SVG 20010904//EN"
 "http://www.w3.org/TR/2001/REC-SVG-20010904/DTD/svg10.dtd">
<svg version="1.0" xmlns="http://www.w3.org/2000/svg"
 width="600.000000pt" height="600.000000pt" viewBox="0 0 600.000000 600.000000"
 preserveAspectRatio="xMidYMid meet">

<g transform="translate(0.000000,600.000000) scale(0.100000,-0.100000)"
fill="currentColor" stroke="none">
<path d="M2200 4670 c-432 -131 -792 -243 -800 -248 -39 -23 -82 -451 -82
-802 1 -862 230 -1520 686 -1976 177 -176 329 -283 561 -395 135 -66 391 -159
435 -159 44 0 300 93 435 159 233 112 384 219 561 395 382 383 595 882 670
1573 21 199 21 614 0 828 -22 211 -45 357 -59 372 -12 11 -1589 494 -1611 492
-6 0 -364 -108 -796 -239z m1576 -81 c417 -127 760 -232 762 -234 5 -5 23
-122 38 -255 22 -192 29 -592 15 -773 -90 -1119 -573 -1819 -1456 -2111 -59
-20 -120 -36 -135 -36 -42 0 -281 85 -405 144 -209 100 -380 220 -537 377
-355 356 -563 844 -640 1504 -17 146 -17 680 0 845 13 121 39 300 44 305 8 8
1516 464 1534 464 11 1 362 -103 780 -230z"/>
<path d="M2295 4449 c-379 -116 -691 -212 -694 -214 -9 -9 -31 -165 -46 -318
-19 -200 -19 -516 0 -709 87 -903 503 -1521 1205 -1791 63 -25 143 -53 178
-62 59 -17 65 -17 125 0 80 22 268 95 338 130 609 309 964 894 1044 1723 19
193 19 509 0 709 -15 152 -37 309 -46 317 -6 7 -1390 426 -1403 426 -6 -1
-321 -96 -701 -211z m1691 -704 c40 -17 69 -72 59 -114 -8 -33 -1227 -1257
-1270 -1276 -63 -27 -72 -21 -402 308 -172 171 -320 326 -329 345 -13 29 -14
42 -5 72 14 47 48 70 103 70 42 0 44 -1 320 -277 l278 -278 578 577 c317 317
584 578 592 581 25 9 39 8 76 -8z"/>
</g>
</svg>
